M48
;DRILL file {KiCad 4.0.7} date Thu May  3 20:30:13 2018
;FORMAT={-:-/ absolute / metric / decimal}
FMAT,2
METRIC,TZ
T1C0.400
T2C0.800
T3C1.000
T4C1.254
T5C1.470
T6C2.254
%
G90
G05
M71
T1
X56.87Y-47.57
X56.87Y-67.89
X56.87Y-88.21
X65.76Y-47.57
X65.76Y-62.81
X65.76Y-67.89
X65.76Y-83.13
X65.76Y-88.21
X65.76Y-103.45
X74.65Y-62.81
X74.65Y-83.13
X74.65Y-103.45
T2
X111.48Y-28.52
X114.02Y-28.52
X116.56Y-28.52
T3
X55.5Y-132.5
X55.5Y-135.04
X55.5Y-137.58
X55.6Y-109.8
X55.6Y-112.34
X55.6Y-114.88
X60.68Y-53.92
X60.68Y-56.46
X60.68Y-74.24
X60.68Y-76.78
X60.68Y-94.56
X60.68Y-97.1
X63.22Y-53.92
X63.22Y-56.46
X63.22Y-74.24
X63.22Y-76.78
X63.22Y-94.56
X63.22Y-97.1
X65.76Y-53.92
X65.76Y-56.46
X65.76Y-74.24
X65.76Y-76.78
X65.76Y-94.56
X65.76Y-97.1
X68.3Y-53.92
X68.3Y-56.46
X68.3Y-74.24
X68.3Y-76.78
X68.3Y-94.56
X68.3Y-97.1
X70.84Y-53.92
X70.84Y-56.46
X70.84Y-74.24
X70.84Y-76.78
X70.84Y-94.56
X70.84Y-97.1
X91.16Y-36.14
X93.7Y-81.86
X101.32Y-36.14
X103.86Y-81.86
X108.94Y-81.86
X114.02Y-36.14
X124.18Y-36.14
T4
X85.4Y-170.86
X92.15Y-170.86
T5
X62.5Y-170.5
X67.5Y-170.5
T6
X121.15Y-94.86
X126.65Y-94.86
T0
M30
