M48
METRIC,TZ
T1C0.800
T2C1.000
T3C1.200
%
G90
G05
T1
X152500Y-107500
X152500Y-112500
X152500Y-114500
X152500Y-119500
X158500Y-108500
X158500Y-110500
X158500Y-116500
X158500Y-119000
X159000Y-75340
X159000Y-85500
X159000Y-91340
X159000Y-101500
X164000Y-111500
X164460Y-93880
X164460Y-101500
X164500Y-89000
X167000Y-93880
X167000Y-101500
X168500Y-75000
X168500Y-85160
X169000Y-111500
X169500Y-89000
X169540Y-93880
X169540Y-101500
X172080Y-93880
X172080Y-101500
X174000Y-106000
X174500Y-75000
X174500Y-85160
X178840Y-72000
X178840Y-86500
X178840Y-101000
X178840Y-115500
X179000Y-106000
X189000Y-72000
X189000Y-86500
X189000Y-101000
X189000Y-115500
T2
X143710Y-108330
X143710Y-110870
X143710Y-113410
X143710Y-115950
X143710Y-118490
X146250Y-108330
X146250Y-110870
X146250Y-113410
X146250Y-115950
X146250Y-118490
X171500Y-67000
X188000Y-67000
X188000Y-81500
X188000Y-96000
X188000Y-110500
T3
X144000Y-68500
X144000Y-73500
X144000Y-78500
X192500Y-67000
X192500Y-72000
X192500Y-77000
X192500Y-81500
X192500Y-86500
X192500Y-91500
X192500Y-96000
X192500Y-101000
X192500Y-106000
X192500Y-110500
X192500Y-115500
X192500Y-120500
T0
M30
