<?xml version="1.0" standalone="no"?>
<!DOCTYPE svg PUBLIC "-//W3C//DTD SVG 1.1//EN"
"http://www.w3.org/Graphics/SVG/1.1/DTD/svg11.dtd">
<svg width="4561.15" height="4836.74" viewBox="0 0 4561.15 4836.74" version="1.1"
xmlns="http://www.w3.org/2000/svg"
xmlns:xlink="http://www.w3.org/1999/xlink">
<circle cx="3953" cy="4150" r="31" style=""/>
<circle cx="3153" cy="4150" r="31" style=""/>
<circle cx="3166" cy="3402" r="31" style=""/>
<circle cx="3153" cy="3008" r="31" style=""/>
<circle cx="2772" cy="3402" r="31" style=""/>
<circle cx="2621" cy="3047" r="31" style=""/>
<circle cx="2421" cy="3047" r="31" style=""/>
<circle cx="2221" cy="3047" r="31" style=""/>
<circle cx="2021" cy="3047" r="31" style=""/>
<circle cx="1591" cy="3047" r="31" style=""/>
<circle cx="1552" cy="3598" r="31" style=""/>
<circle cx="1552" cy="3756" r="31" style=""/>
<circle cx="1985" cy="3835" r="31" style=""/>
<circle cx="2378" cy="3835" r="31" style=""/>
<circle cx="1552" cy="4228" r="31" style=""/>
<circle cx="1552" cy="4425" r="31" style=""/>
<circle cx="1079" cy="4464" r="31" style=""/>
<circle cx="1079" cy="4071" r="31" style=""/>
<circle cx="1079" cy="3913" r="31" style=""/>
<circle cx="1079" cy="3520" r="31" style=""/>
<circle cx="1591" cy="2247" r="31" style=""/>
<circle cx="2024" cy="2063" r="31" style=""/>
<circle cx="2418" cy="2063" r="31" style=""/>
<circle cx="2339" cy="1761" r="31" style=""/>
<circle cx="2811" cy="1761" r="31" style=""/>
<circle cx="3153" cy="1866" r="31" style=""/>
<circle cx="2621" cy="2447" r="31" style=""/>
<circle cx="2421" cy="2447" r="31" style=""/>
<circle cx="2221" cy="2447" r="31" style=""/>
<circle cx="2021" cy="2447" r="31" style=""/>
<circle cx="1591" cy="1788" r="31" style=""/>
<circle cx="1591" cy="988" r="31" style=""/>
<circle cx="2339" cy="961" r="31" style=""/>
<circle cx="2811" cy="961" r="31" style=""/>
<circle cx="3153" cy="725" r="31" style=""/>
<circle cx="3953" cy="725" r="31" style=""/>
<circle cx="3953" cy="1866" r="31" style=""/>
<circle cx="3953" cy="3008" r="31" style=""/>
<circle cx="3874" cy="3756" r="38" style=""/>
<circle cx="3874" cy="2614" r="38" style=""/>
<circle cx="3874" cy="1473" r="38" style=""/>
<circle cx="3874" cy="331" r="38" style=""/>
<circle cx="2575" cy="331" r="38" style=""/>
<circle cx="587" cy="3585" r="38" style=""/>
<circle cx="587" cy="3785" r="38" style=""/>
<circle cx="587" cy="3985" r="38" style=""/>
<circle cx="587" cy="4185" r="38" style=""/>
<circle cx="587" cy="4385" r="38" style=""/>
<circle cx="387" cy="4385" r="38" style=""/>
<circle cx="387" cy="4185" r="38" style=""/>
<circle cx="387" cy="3985" r="38" style=""/>
<circle cx="387" cy="3785" r="38" style=""/>
<circle cx="387" cy="3585" r="38" style=""/>
<circle cx="4229" cy="4543" r="46" style=""/>
<circle cx="4229" cy="4150" r="46" style=""/>
<circle cx="4229" cy="3756" r="46" style=""/>
<circle cx="4229" cy="3402" r="46" style=""/>
<circle cx="4229" cy="3008" r="46" style=""/>
<circle cx="4229" cy="2614" r="46" style=""/>
<circle cx="4229" cy="2260" r="46" style=""/>
<circle cx="4229" cy="1866" r="46" style=""/>
<circle cx="4229" cy="1473" r="46" style=""/>
<circle cx="4229" cy="1118" r="46" style=""/>
<circle cx="4229" cy="725" r="46" style=""/>
<circle cx="4229" cy="331" r="46" style=""/>
<circle cx="410" cy="449" r="46" style=""/>
<circle cx="410" cy="843" r="46" style=""/>
<circle cx="410" cy="1237" r="46" style=""/>
</svg>
